<mxfile
  host="Electron" 
  agent="Mozilla/5.0 (Macintosh; Intel Mac OS X 10_15_7) AppleWebKit/537.36 (KHTML, like Gecko) draw.io/25.0.2 Chrome/128.0.6613.186 Electron/32.2.5 Safari/537.36" 
  version="25.0.2"
  >
  <diagram
    name="-"
    >
    <mxGraphModel
      grid="1" 
      gridSize="10" 
      guides="1" 
      tooltips="1" 
      connect="1" 
      arrows="1" 
      fold="1" 
      page="1" 
      pageScale="1" 
      pageWidth="1" 
      pageHeight="1" 
      math="0" 
      shadow="0"
      >
      <root>
        <mxCell
          id="page"
          />
        <mxCell
          id="root" 
          parent="page"
          />
        <mxCell
          style="verticalAlign=top;aspect=fixed;align=center;spacingLeft=5;spacingRight=5;spacingBottom=5;strokeColor=none;" 
          id="shape_" 
          parent="root" 
          value=" " 
          vertex="1"
          >
          <mxGeometry
            as="geometry" 
            width="100" 
            height="80" 
            x="0" 
            y="0"
            />
          </mxCell>
        <mxCell
          style="rounded=1;whiteSpace=wrap;verticalAlign=top;align=center;editableCssRules=.*;html=1;shape=image;verticalLabelPosition=bottom;labelBackgroundColor=#ffffff;aspect=fixed;imageAspect=0;image=data:image/svg+xml,PHN2ZyB4bWxucz0iaHR0cDovL3d3dy53My5vcmcvMjAwMC9zdmciIHhtbG5zOnY9Imh0dHBzOi8vdmVjdGEuaW8vbmFubyIgd2lkdGg9IjIwLjAyODAxODk1MTQxNjAxNiIgaGVpZ2h0PSIxMC4wMTk3MzA1Njc5MzIxMjkiIHZpZXdCb3g9Ii0wLjAwMDAxOTc3MjAwNTU0MzkyNzY2MiAwIDIwLjAyODAxODk1MTQxNjAxNiAxMC4wMTk3MzA1Njc5MzIxMjkiPiYjeGE7CTxzdHlsZSB0eXBlPSJ0ZXh0L2NzcyI+JiN4YTsJLnN0MHtmaWxsOiM0Mjg1ZjQ7fSYjeGE7CS5zdDF7ZmlsbDojNjY5ZGY2O30mI3hhOwkuc3Qye2ZpbGw6I2FlY2JmYTt9JiN4YTsJPC9zdHlsZT4mI3hhOwk8cGF0aCBjbGFzcz0ic3QwIiBkPSJNMTYuMjU4IDIuMjRBOS42MSA5LjYxIDAgMCAwIDEwLjEwOCAwQzUuMjY4IDAgMS4xMzggMy42NS4wMjggOC45YS44MS44MSAwIDEgMCAxLjU4LjM1aDBjLjk1LTQuNTEgNC40Mi03LjY1IDguNS03LjY1YTcuODYgNy44NiAwIDAgMSA0LjQ1IDEuNHptLjQ0IDEuMjlsLTUuODggMi42M2gwYTIgMiAwIDEgMCAxLjEzIDIuNTggMS44MyAxLjgzIDAgMCAwIC4xMi0uNDYuMS4xIDAgMCAwIC4wNSAwbDUtNGMuNTktLjU0LjI3LTEuMDYtLjQyLS43NXoiLz4mI3hhOwk8Y2lyY2xlIGNsYXNzPSJzdDEiIGN4PSIxOC4wNjgiIGN5PSI1Ljk5IiByPSIuODQiLz4mI3hhOwk8Y2lyY2xlIGNsYXNzPSJzdDIiIGN4PSIxOS4xODgiIGN5PSI5LjA0IiByPSIuODQiLz4mI3hhOzwvc3ZnPg;strokeColor=none;" 
          id="premium_network_tier_" 
          parent="shape_" 
          value=" " 
          vertex="1"
          >
          <mxGeometry
            width="40" 
            height="20" 
            as="geometry" 
            x="30" 
            y="30"
            />
          </mxCell>
        </root>
      </mxGraphModel>
    </diagram>
  </mxfile>